<?xml version="1.0" encoding="UTF-8" standalone="no"?>
<!-- Created with Inkscape (http://www.inkscape.org/) -->

<svg
   xmlns:dc="http://purl.org/dc/elements/1.1/"
   xmlns:cc="http://creativecommons.org/ns#"
   xmlns:rdf="http://www.w3.org/1999/02/22-rdf-syntax-ns#"
   xmlns:svg="http://www.w3.org/2000/svg"
   xmlns="http://www.w3.org/2000/svg"
   xmlns:sodipodi="http://sodipodi.sourceforge.net/DTD/sodipodi-0.dtd"
   xmlns:inkscape="http://www.inkscape.org/namespaces/inkscape"
   width="180"
   height="180"
   id="svg3077"
   version="1.1"
   inkscape:version="0.48.4 r9939"
   sodipodi:docname="livvkit_icon.svg"
   inkscape:export-filename="/home/fjk/Documents/Docs/livv-branding/livvkit_icon.png"
   inkscape:export-xdpi="300"
   inkscape:export-ydpi="300">
  <defs
     id="defs3079">
    <clipPath
       clipPathUnits="userSpaceOnUse"
       id="clipPath3015">
      <path
         style="fill:none;stroke:#000000;stroke-width:1px;stroke-linecap:butt;stroke-linejoin:miter;stroke-opacity:1"
         d="m 11.520353,1000.5048 166.152727,0.1525 0.15243,27.1331 42.37657,0.3049 9.75575,-117.6788 -61.27834,-84.75313 -115.239871,-0.60974 -55.7907326,60.36375 -0.9146022,87.8018 z"
         id="path3017"
         inkscape:connector-curvature="0" />
    </clipPath>
  </defs>
  <sodipodi:namedview
     id="base"
     pagecolor="#ffffff"
     bordercolor="#666666"
     borderopacity="1.0"
     inkscape:pageopacity="0.0"
     inkscape:pageshadow="2"
     inkscape:zoom="3.959798"
     inkscape:cx="44.99923"
     inkscape:cy="84.260197"
     inkscape:document-units="in"
     inkscape:current-layer="g3898"
     showgrid="false"
     units="in"
     height="2in"
     inkscape:window-width="1615"
     inkscape:window-height="1026"
     inkscape:window-x="65"
     inkscape:window-y="24"
     inkscape:window-maximized="1" />
  <metadata
     id="metadata3082">
    <rdf:RDF>
      <cc:Work
         rdf:about="">
        <dc:format>image/svg+xml</dc:format>
        <dc:type
           rdf:resource="http://purl.org/dc/dcmitype/StillImage" />
        <dc:title />
      </cc:Work>
    </rdf:RDF>
  </metadata>
  <g
     inkscape:label="Layer 1"
     inkscape:groupmode="layer"
     id="layer1"
     transform="translate(0,-872.3622)">
    <g
       id="g3898"
       transform="translate(4.8431125,22.223363)">
      <g
         id="g2994"
         transform="matrix(0.9952801,0,0,0.9952801,0.40193196,4.8661046)">
        <g
           clip-path="url(#clipPath3015)"
           id="g3874"
           transform="matrix(0.82835405,0,0,0.82835405,-7.4412445,160.58171)">
          <path
             transform="matrix(0.26093984,0.0403956,-0.0403956,0.26093984,168.49797,751.76511)"
             d="m 302.85715,739.50507 c 0,224.06981 -181.64447,405.71433 -405.71429,405.71433 -224.06982,0 -405.71429,-181.64452 -405.71429,-405.71433 0,-224.06982 181.64447,-405.7143 405.71429,-405.7143 224.06982,0 405.71429,181.64448 405.71429,405.7143 z"
             sodipodi:ry="405.71429"
             sodipodi:rx="405.71429"
             sodipodi:cy="739.50507"
             sodipodi:cx="-102.85714"
             id="path2998"
             style="fill:none;stroke:#47a3ff;stroke-width:15.38148785;stroke-linejoin:round;stroke-miterlimit:4;stroke-opacity:1;stroke-dasharray:none"
             sodipodi:type="arc" />
          <path
             inkscape:connector-curvature="0"
             id="path3878"
             d="m 166.70264,1027.6789 c 0,-0.4143 -0.32918,-0.9446 -0.73217,-1.1736 -0.40224,-0.2335 -0.81316,-1.0033 -0.91244,-1.7204 -0.15818,-1.1435 -0.43689,-1.304 -2.26598,-1.304 -2.65558,0 -3.47265,-0.7548 -3.0585,-2.8254 0.25385,-1.2663 0.14161,-1.606 -0.52579,-1.606 -0.46552,0 -0.84719,0.2335 -0.84719,0.5197 0,0.2863 -0.34199,0.5198 -0.7599,0.5198 -0.41807,0 -1.41502,0.8211 -2.21583,1.8251 -1.43948,1.8033 -3.37938,2.409 -4.08143,1.273 -0.20113,-0.3239 -1.49254,-0.4595 -3.15907,-0.3239 -2.54084,0.2034 -2.81834,0.1281 -2.81834,-0.8075 0,-0.7156 -0.24708,-0.9408 -0.79795,-0.7306 -0.52051,0.1958 -1.00252,-0.1432 -1.38707,-0.9875 -0.57475,-1.2618 -1.98607,-1.8102 -1.98607,-0.7714 0,0.9733 -1.31257,0.5274 -2.29537,-0.7819 -0.53858,-0.7156 -1.30112,-1.3039 -1.695,-1.3039 -1.68183,0 -6.4372,-3.9931 -6.4372,-5.4062 0,-0.4971 -0.42635,-0.8505 -1.04276,-0.8505 -0.75252,0 -1.04275,-0.3465 -1.04275,-1.2474 0,-1.2714 -0.85828,-1.8809 -2.64955,-1.8809 -0.79078,0 -1.00012,-0.3766 -1.00012,-1.7814 0,-0.98 -0.29378,-1.8997 -0.65158,-2.0444 -0.35856,-0.1431 -0.12354,-0.2787 0.52127,-0.3013 1.34436,-0.075 1.40598,-0.3389 0.44216,-2.076 -0.38191,-0.6854 -0.58077,-1.6858 -0.44216,-2.2154 0.19659,-0.75326 -0.0377,-0.96342 -1.06965,-0.96342 -2.19389,0 -2.92651,0.54235 -3.27558,2.39612 -0.18304,0.9763 -0.45723,1.7747 -0.60864,1.7747 -0.64404,0 -1.66201,-1.929 -1.67732,-3.17727 -0.0151,-1.60972 -2.02651,-4.12187 -3.29177,-4.12187 -0.49265,0 -0.89586,-0.27872 -0.89586,-0.62523 0,-0.33897 -0.60112,-1.25042 -1.3351,-2.01725 -1.20968,-1.26248 -1.25864,-1.46963 -0.52126,-2.20707 0.44745,-0.44444 0.81368,-1.32727 0.81368,-1.95399 0,-0.93631 -0.23427,-1.09676 -1.30345,-0.89187 -1.47724,0.27871 -1.76711,-0.65534 -0.52127,-1.69184 1.05924,-0.87907 0.9849,-1.56454 -0.17024,-1.56454 -0.52351,0 -1.51189,0.59508 -2.19638,1.325 -1.21481,1.29336 -1.25412,1.29939 -1.63844,0.25611 -0.21695,-0.58755 -0.25913,-1.41616 -0.0941,-1.84626 0.20941,-0.54236 -0.0377,-0.78115 -0.82061,-0.78115 -0.61619,0 -1.4328,-0.29377 -1.81434,-0.6478 -0.57323,-0.53482 -0.51373,-0.8045 0.34425,-1.54797 1.17149,-1.01617 0.86905,-2.79011 -0.3932,-2.30576 -0.42786,0.16571 -0.77775,0.18078 -0.77775,0.0753 0,-0.60262 3.22504,-3.35506 3.92837,-3.35506 1.50421,0 0.72992,-0.98076 -0.93036,-1.17887 l -1.69455,-0.20338 1.69455,-0.42183 c 1.91216,-0.47456 2.14629,-1.41012 0.73067,-2.92946 -0.93059,-0.99884 -2.68564,-0.93933 -2.68564,0.0904 0,0.25611 -0.35178,0.46703 -0.7821,0.46703 -1.37615,0 -0.84955,-1.98638 0.7821,-2.94981 1.12382,-0.66287 1.56409,-1.32123 1.56409,-2.33288 0,-0.77435 0.24782,-1.49072 0.55139,-1.59241 0.77218,-0.25611 0.0151,-1.98788 -0.86768,-1.98788 -0.53256,0 -0.72614,-0.76457 -0.72614,-2.86769 0,-2.51969 -0.12656,-2.8677 -1.04277,-2.8677 -0.57925,0 -1.04267,-0.3465 -1.04267,-0.78189 0,-1.0365 -1.36666,-1.00637 -1.76754,0.0753 -0.287,0.74573 -0.38945,0.74573 -1.13631,0 -0.529556,-0.52729 -1.275059,-0.70808 -2.097104,-0.49717 -0.70205,0.17326 -1.916549,0.0753 -2.699568,-0.21844 -0.7831,-0.29378 -2.31005,-0.68547 -3.393326,-0.86702 -1.083353,-0.18078 -1.832028,-0.54988 -1.663748,-0.82181 0.448196,-0.72314 6.697848,-0.61015 7.445242,0.13559 0.494142,0.49715 0.884934,0.36909 1.79873,-0.58002 0.811884,-0.84442 0.968854,-1.2881 0.515984,-1.45683 -0.35855,-0.12806 -0.651578,-0.693 -0.651578,-1.24213 0,-0.5499 -0.23426,-0.99959 -0.521255,-0.99959 -0.286995,0 -0.521265,-0.38417 -0.521265,-0.85496 0,-1.19921 -1.546163,-2.23722 -3.362896,-2.2568 -1.196266,0 -1.399046,-0.15066 -0.912434,-0.64028 0.979776,-0.97925 0.784378,-2.15586 -0.286996,-1.72574 -0.501677,0.20338 -1.205682,0.48209 -1.564089,0.63275 -0.401492,0.16571 -0.651578,-0.15818 -0.651578,-0.84517 0,-1.06437 -0.06779,-1.07792 -1.538251,-0.31638 -0.846072,0.4369 -1.972284,0.79546 -2.502662,0.79546 -1.308956,0 -2.215742,1.0026 -2.215742,2.45038 0,0.71562 -0.31336,1.19921 -0.782045,1.19921 -0.430116,0 -0.782043,-0.32391 -0.782043,-0.72314 0,-0.39923 -0.351775,-0.86099 -0.782118,-1.02671 -1.069868,-0.41429 -1.097966,-4.50379 -0.03013,-4.50379 0.646304,0 0.650824,-0.18832 0.03013,-1.38903 -0.402245,-0.77512 -0.590563,-2.04362 -0.425597,-2.8677 0.222967,-1.11709 0.09717,-1.47791 -0.515989,-1.47791 -0.44669,0 -0.973903,-0.51223 -1.171711,-1.13368 -0.616927,-1.94267 -1.965204,-2.92795 -4.533401,-3.3091 -1.837526,-0.27118 -2.4766,-0.59508 -2.4766,-1.25344 0,-1.05685 -1.854698,-3.1675 -2.783631,-3.1675 -0.361569,0 -0.939026,0.2787 -1.283119,0.62521 -0.450455,0.45196 -0.625967,0.4595 -0.625967,0.0753 0,-0.32391 0.234267,-0.73821 0.521262,-0.91749 0.286996,-0.17325 0.521263,-0.89488 0.521263,-1.59467 0,-1.01013 -0.269671,-1.27302 -1.303457,-1.27302 -0.970814,0 -1.303458,-0.27118 -1.303458,-1.07944 0,-1.60672 -1.25713,-2.57015 -3.351747,-2.57015 -1.024145,0 -1.862082,-0.24858 -1.862082,-0.54237 0,-0.81879 -2.449482,-3.10422 -3.328019,-3.10422 -0.422584,0 -1.0887,-0.31636 -1.480023,-0.70807 -0.416559,-0.42183 -2.560214,-0.86551 -5.179556,-1.08395 -3.815009,-0.31638 -4.514269,-0.25612 -4.783938,0.45196 -0.259879,0.67794 -1.285681,0.82332 -5.806653,0.82332 -3.312955,0 -5.490883,-0.21091 -5.490883,-0.51975 0,-0.28625 -0.469286,-0.51976 -1.04275,-0.51976 -0.787996,0 -1.04471,0.35405 -1.05081,1.43348 -0.0042,0.8301 -0.171745,1.17661 -0.396221,0.82407 -0.213927,-0.33897 -1.087419,-0.78566 -1.942003,-1.00034 -1.853796,-0.46703 -2.772709,-1.28132 -2.469142,-2.19202 0.355543,-1.06663 -0.927501,-2.19352 -2.498971,-2.19352 -1.181805,0 -1.402136,-0.18831 -1.185948,-1.0154 0.198864,-0.76004 0.801253,-1.05532 2.397431,-1.17284 1.908333,-0.14312 2.176648,-0.33143 2.559308,-1.81838 0.326918,-1.26852 0.764569,-1.71144 1.855151,-1.87716 1.024372,-0.15065 0.817675,-0.23351 -0.731424,-0.29378 -1.838202,-0.0753 -2.208058,-0.27117 -2.486466,-1.38149 -0.454975,-1.81312 -2.392837,-1.81312 -2.392837,0 0,1.04252 -0.26063,1.30315 -1.303456,1.30315 -0.720126,0 -1.303458,-0.3013 -1.303458,-0.67794 0,-0.9574 -3.784501,-4.53769 -4.79599,-4.53769 -1.549551,0 -0.395467,-2.01198 1.7109,-2.9822 1.108512,-0.51223 2.021474,-1.21728 2.028856,-1.56981 0.01506,-0.35403 0.658357,-0.78565 1.447256,-0.96118 2.793048,-0.61768 3.523192,-0.89036 3.864047,-1.42141 0.189824,-0.29377 1.164704,-0.50469 2.166779,-0.46703 2.291295,0.0904 3.452007,-1.07867 2.536257,-2.54453 -0.379647,-0.61016 -0.418064,-1.0011 -0.09868,-1.0011 0.794548,0 0.632746,-1.29187 -0.386428,-3.08239 -0.723892,-1.27227 -1.262253,-1.60371 -2.606915,-1.60672 -0.93202,-0.002 -1.694555,-0.23351 -1.694555,-0.51975 0,-0.28625 -0.351776,-0.51976 -0.782043,-0.51976 -0.973073,0 -0.968554,-0.48962 0.01507,-1.79353 0.421077,-0.55742 0.765472,-1.554 0.765472,-2.21612 0,-0.93631 0.289255,-1.20372 1.303382,-1.20372 0.762308,0 1.303532,-0.30131 1.303532,-0.72314 0,-0.39925 0.409778,-0.86703 0.912436,-1.04403 0.501677,-0.17326 1.205682,-0.45196 1.564088,-0.62522 0.431623,-0.20338 0.651578,0.15066 0.651578,1.04328 0,1.08018 0.251591,1.34685 1.272648,1.34685 1.633314,0 1.773046,-0.27119 1.903738,-3.68123 0.128809,-3.3724 0.332945,-3.86202 1.278975,-3.07711 1.159585,0.96267 1.866,0.0753 1.498479,-1.88544 -0.306579,-1.63232 -0.227487,-1.78373 0.928481,-1.78373 0.694514,0 1.766793,-0.46702 2.38244,-1.04252 1.321611,-1.23161 1.684235,-1.30015 1.684235,-0.31638 0,0.39923 0.586797,0.87303 1.303457,1.05307 0.85014,0.21091 1.303457,0.693 1.303457,1.37547 0,1.32951 1.400856,1.89145 2.697233,1.0817 0.546873,-0.33898 1.21992,-0.4821 1.495088,-0.31638 0.274943,0.17325 0.500171,-0.0753 0.500171,-0.50469 0,-0.44443 0.234267,-0.81353 0.521263,-0.81353 0.83304,0 0.601863,-2.60857 -0.260631,-2.93926 -0.430117,-0.16572 -0.78212,-0.62521 -0.78212,-1.02671 0,-0.97925 3.077557,-0.92878 4.401127,0.0753 1.394076,1.05381 6.026531,1.04177 6.026531,0 0,-0.47456 -0.483599,-0.78265 -1.222631,-0.78265 -0.672669,0 -1.647324,-0.46702 -2.166327,-1.04252 -0.519004,-0.57248 -1.393323,-1.04252 -1.942908,-1.04252 -0.88818,0 -0.912284,-0.0904 -0.216942,-0.78191 0.430117,-0.42935 1.167568,-0.78264 1.638662,-0.78264 0.793946,0 2.710113,-1.45983 2.277963,-1.73628 -0.106211,-0.0753 -0.820612,-0.4369 -1.588344,-0.82483 -1.192726,-0.60261 -1.307223,-0.84442 -0.78694,-1.67754 0.366088,-0.58755 1.208394,-0.97473 2.113899,-0.97473 1.49185,0 1.502848,0 1.254571,-2.60705 -0.231255,-2.40293 -0.161953,-2.60708 0.878839,-2.60708 0.621447,0 1.803703,-0.70054 2.62793,-1.56378 0.824228,-0.86023 1.699903,-1.56378 1.946072,-1.56378 0.246319,0 1.034164,-0.58755 1.750975,-1.30391 1.410345,-1.41012 2.886301,-1.85756 1.796396,-0.54235 -0.346503,0.41429 -0.479079,1.00411 -0.293774,1.30315 0.589056,0.95364 2.080754,0.58755 3.091719,-0.75854 1.104142,-1.47039 1.87564,-1.68432 1.87564,-0.51975 0,0.43689 0.463261,0.78189 1.042676,0.78189 0.573237,0 1.042751,-0.23351 1.042751,-0.51222 0,-0.27871 0.586796,-0.66288 1.303532,-0.8384 0.717112,-0.18078 1.303458,-0.54235 1.303458,-0.79243 0,-0.25611 0.346503,-0.46703 0.769012,-0.46703 0.561938,0 0.7028,0.42183 0.521263,1.56454 -0.136342,0.86024 -0.369856,2.32233 -0.519003,3.24809 -0.151407,0.93932 -1.058042,2.49483 -2.050927,3.51927 -1.649735,1.70239 -1.772217,2.05869 -1.683557,4.90756 0.06779,2.25303 0.332946,3.22172 0.983092,3.63151 1.120489,0.70807 1.285906,0.52728 2.389069,-2.60708 0.497911,-1.41387 1.54149,-3.38217 2.319618,-4.37574 l 1.414789,-1.80558 0.339723,1.69335 c 0.497158,2.47977 1.944942,2.22592 3.302636,-0.58002 0.605628,-1.25118 0.953111,-2.65829 0.772778,-3.12833 -0.449701,-1.17208 0.39622,-1.07265 1.770861,0.21092 0.84449,0.78641 1.141128,1.66774 1.141128,3.38896 0,1.2798 0.234267,2.32609 0.521263,2.32609 0.286995,0 0.521262,0.58755 0.521262,1.30317 0,1.10353 0.242552,1.30391 1.580433,1.30391 1.769505,0 2.5389,-1.15251 1.558439,-2.33364 -0.344998,-0.42183 -0.756358,-2.17845 -0.914168,-3.91851 -0.158186,-1.7393 -0.488118,-3.28651 -0.734436,-3.43942 -0.24632,-0.15065 -0.447442,-1.10956 -0.447442,-2.12722 0,-1.8892 1.679337,-4.31699 2.997942,-4.33507 0.358549,-0.004 0.651577,-0.24104 0.651577,-0.5273 0,-0.28623 0.539334,-0.51974 1.198672,-0.51974 0.884412,0 1.362965,0.45949 1.824869,1.731 0.34424,0.9529 0.62596,2.06924 0.62596,2.48128 0,0.41429 0.46929,1.04328 1.04283,1.40183 1.32794,0.82935 1.32794,1.97205 0,3.10949 -1.20214,1.02896 -1.40967,3.26768 -0.30282,3.26768 0.40677,0 1.44757,-0.40677 2.31255,-0.90242 1.79151,-1.02821 2.68902,-0.59508 1.59346,0.7691 -1.73554,2.16112 -2.07736,3.2142 -1.39656,4.30492 0.71184,1.13971 3.00653,1.438 3.00848,0.39171 0.002,-0.72314 2.68572,-4.04054 3.27319,-4.04054 0.20639,0 0.37512,0.35403 0.37512,0.79771 0,0.4369 0.35178,0.93405 0.78213,1.09903 0.4301,0.16571 0.78218,0.56494 0.78234,0.89639 3.7e-4,1.02443 4.61098,5.39264 6.38734,6.05024 0.93158,0.34652 2.04573,0.84292 2.47592,1.10731 0.43011,0.26365 1.25125,0.68548 1.8248,0.94461 1.44792,0.6478 3.68001,2.66054 2.94732,2.66054 -1.16163,0 -0.5853,1.86962 0.83265,2.70198 1.23612,0.72314 1.52801,0.7382 2.11676,0.0979 0.37513,-0.40677 0.92983,-0.58755 1.23145,-0.39924 0.30205,0.18832 0.76713,0 1.03446,-0.37663 0.39171,-0.58002 0.64632,-0.48963 1.30873,0.45196 0.45272,0.64781 1.322,1.19167 1.93222,1.21427 0.94361,0.0753 0.89511,0.12052 -0.32466,0.56495 -0.92954,0.33897 -1.43371,0.90091 -1.43371,1.59618 0,0.58755 -0.4075,1.37019 -0.9055,1.73402 -0.85556,0.62522 -0.85111,0.72314 0.0806,1.75211 0.54236,0.60262 1.23575,1.08999 1.54059,1.08999 0.30432,0 1.07702,0.61014 1.71573,1.35135 1.22896,1.42971 2.26078,1.30467 2.26078,-0.27871 0,-0.51974 0.35177,-1.23987 0.78212,-1.59768 0.66138,-0.54989 0.78197,-0.4369 0.78197,0.71561 0,0.99959 0.26891,1.36794 0.99936,1.36794 0.5499,0 1.07756,-0.20339 1.17306,-0.45196 0.0956,-0.24858 0.67268,-0.61016 1.2823,-0.79622 0.83974,-0.25611 1.17547,-0.0904 1.38466,0.70809 0.15217,0.58001 0.82619,1.27603 1.49848,1.5457 1.20953,0.4821 1.20733,0.48962 -0.21167,0.51976 -1.07521,0 -1.43385,0.29377 -1.43385,1.07641 0,0.57249 -0.23427,1.04253 -0.52125,1.04253 -0.28701,0 -0.52128,0.35404 -0.52128,0.7819 0,0.48962 0.49189,0.78189 1.30338,0.78189 1.10068,0 1.30347,0.24105 1.30347,1.56453 0,1.82443 -0.0889,1.78827 1.94358,0.77437 2.15254,-1.07342 3.14204,-0.61014 2.85603,1.33932 -0.1725,1.1766 0.0678,1.78901 1.00568,2.53173 0.6787,0.54236 1.79715,1.47415 2.48632,2.07753 0.68924,0.6026 1.82894,1.0975 2.53301,1.0975 1.10521,0 1.23545,-0.17325 0.95304,-1.30315 -0.25912,-1.03274 -0.13032,-1.30316 0.62146,-1.30316 0.522,0 1.23,0.27871 1.5741,0.62521 0.48662,0.4821 0.62596,0.4821 0.62596,0 0,-0.3465 0.23427,-0.62521 0.52128,-0.62521 0.81976,0 0.60863,1.41916 -0.26063,1.7521 -0.516,0.19585 -0.78205,1.01541 -0.78205,2.40218 0,1.73177 -0.17778,2.10237 -1.00977,2.10237 -0.75357,0 -1.05117,-0.42183 -1.17313,-1.66321 -0.15293,-1.55852 -0.21846,-1.60823 -1.03702,-0.78416 -0.4806,0.4821 -1.24103,0.73822 -1.69013,0.56495 -0.49037,-0.1883 -0.94686,0 -1.14323,0.54236 -0.20489,0.53482 -0.67568,0.73821 -1.26391,0.54989 -1.57772,-0.49716 -1.82532,0.86249 -0.38191,2.10388 1.16937,1.00562 1.29803,1.43874 1.05849,3.56371 -0.23878,2.12122 -0.1514,2.418 0.70732,2.40293 0.53934,0 1.42542,-0.35403 1.96951,-0.76532 1.58691,-1.20146 2.05522,-0.29377 0.59959,1.16004 -1.90502,1.90502 -1.76799,3.27145 0.32843,3.27145 1.22376,0 2.03548,-0.44443 3.10708,-1.6941 1.05805,-1.23612 1.45637,-1.45607 1.47183,-0.81278 0.007,0.48209 -0.21318,1.0267 -0.50018,1.20372 -0.87854,0.54236 -0.59132,1.01767 1.05736,1.74759 1.86841,0.82709 3.10694,0.47456 3.49012,-0.98905 0.50772,-1.94343 5.35877,-3.57426 5.35877,-1.80107 0,0.94385 1.62517,1.03349 2.51968,0.1356 0.50921,-0.51223 0.7028,-0.4143 0.93119,0.45948 0.20188,0.77136 0.83568,1.19244 2.10742,1.39808 2.16128,0.35403 4.86928,1.48544 4.86928,2.03985 0,0.21092 0.52804,0.39923 1.17315,0.39923 1.14934,0 1.14663,0 -0.13031,0.67041 -0.71711,0.36157 -1.33511,1.00486 -1.37373,1.42594 -0.0377,0.42183 -0.0972,1.17585 -0.13032,1.67753 -0.0821,1.24666 -0.74498,1.14572 -2.57197,-0.3917 -0.85202,-0.7156 -2.0431,-1.3039 -2.64684,-1.3039 -0.60412,0 -1.09789,-0.32391 -1.09789,-0.71561 0,-1.0252 -1.37976,-2.08731 -1.80912,-1.3928 -0.18606,0.30131 -1.10136,0.54236 -2.03443,0.54236 -0.93308,0 -2.8549,0.54988 -4.27067,1.22633 -1.79716,0.85645 -3.16425,1.154 -4.52926,0.98526 -1.54917,-0.18831 -1.95519,-0.0753 -1.95519,0.59509 0,0.4595 0.29604,0.83989 0.65836,0.83989 0.36157,0 0.89007,0.52729 1.17307,1.17285 0.53407,1.21727 2.86093,1.9585 2.86093,0.91146 0,-1.38754 3.9136,-3.31665 5.57871,-2.74945 0.83288,0.28626 -0.0377,2.60633 -1.43197,3.81457 -1.52726,1.32425 -2.33453,3.97425 -1.51241,4.96479 0.49865,0.60261 0.51222,0.94007 0.0527,1.39657 -1.18941,1.18941 -0.65609,1.95925 1.35649,1.95925 1.3955,0 2.14771,-0.30131 2.61136,-1.04253 0.3578,-0.57248 1.16538,-1.04327 1.79383,-1.04327 0.8887,0 1.00359,0.13558 0.51674,0.62521 -1.04101,1.04102 -0.7156,1.45983 1.13533,1.45983 1.95428,0 2.67313,-0.61768 3.20668,-2.73963 0.19734,-0.78792 0.56795,-1.43122 0.82399,-1.43122 0.25536,0 0.46478,-0.35403 0.46478,-0.78189 0,-0.42936 0.23427,-0.7819 0.52125,-0.7819 0.28701,0 0.52127,-0.46703 0.52127,-1.04328 0,-0.89488 0.35026,-1.04403 2.47659,-1.0508 2.72359,0 3.32102,-0.27119 4.19979,-1.81614 0.53181,-0.93857 0.60035,-0.86022 0.6802,0.78189 0.1951,4.01117 -0.13409,6.00356 -1.13346,6.86079 -0.56569,0.48208 -1.00914,1.52838 -1.00914,2.37279 0,0.8286 -0.27193,1.77772 -0.60338,2.10991 -0.45722,0.45949 -0.44593,0.79395 0.0452,1.38601 0.52352,0.63276 0.48887,1.01014 -0.17853,1.96302 -0.45497,0.64783 -0.82732,1.85681 -0.82732,2.6839 0,0.97322 -0.44894,1.85682 -1.27264,2.50462 -0.69979,0.54989 -1.43641,1.52312 -1.63655,2.16039 -0.20037,0.64027 -0.85932,1.64288 -1.46466,2.23344 -0.60563,0.58754 -1.63241,1.71142 -2.28225,2.49031 -0.8866,1.06286 -1.40734,1.30315 -2.0855,0.96192 -1.04366,-0.51976 -5.33564,-0.18832 -5.33564,0.42183 0,0.22598 0.82115,0.79695 1.8248,1.27303 1.00365,0.47456 1.82487,1.21427 1.82487,1.63986 0,0.42183 0.32767,0.90016 0.72765,1.05307 0.51901,0.19585 0.65008,0.85798 0.45724,2.29597 -0.22748,1.69786 -0.0527,2.21612 1.09706,3.2835 1.05096,0.97323 1.36749,1.76566 1.36749,3.42286 0,1.1864 -0.23427,2.15585 -0.52126,2.15585 -0.287,0 -0.52127,0.47457 -0.52127,1.05006 0,1.80936 -1.11643,3.11853 -2.17619,2.55133 -0.62823,-0.33144 -1.26919,-0.28625 -1.98299,0.15818 -1.27106,0.79394 -1.35649,1.75135 -0.21317,2.39088 1.22428,0.68547 0.50996,2.31856 -1.37999,3.15469 -1.49178,0.66287 -1.66796,0.61768 -2.75999,-0.65535 -0.64178,-0.74573 -1.57688,-1.35663 -2.07848,-1.35663 -1.44772,0 -1.64996,1.49222 -0.38492,2.83831 0.73594,0.78341 0.94677,1.34685 0.58754,1.56907 -0.30883,0.18831 -0.56042,0.97775 -0.56042,1.74908 -9e-5,0.9785 -0.55216,1.84402 -1.82496,2.85941 -1.00357,0.80073 -1.82471,1.74533 -1.82471,2.09936 0,0.75705 1.84257,2.43985 2.67078,2.43985 0.37061,0 0.45498,0.63275 0.23879,1.7845 -0.19434,1.03422 -0.10923,1.92385 0.20264,2.11593 1.11114,0.68547 0.53633,2.25529 -1.02672,2.7999 -1.85356,0.64781 -2.24948,2.68465 -0.52126,2.68465 0.57325,0 1.04268,0.21092 1.04268,0.45949 0,0.25612 0.43765,0.57249 0.97216,0.71561 1.37103,0.35404 2.04582,4.01266 0.89618,4.85332 -1.04231,0.76231 -1.06205,2.78634 -0.0377,4.24404 0.70129,1.0018 0.69603,1.2074 -0.0527,1.9555 -0.70733,0.708 -0.72767,0.9656 -0.13258,1.6835 0.38719,0.467 0.62748,1.2979 0.53407,1.8485 -0.11149,0.6553 0.19811,1.0975 0.89519,1.2797 0.58529,0.1508 1.20567,0.7233 1.37788,1.2648 0.17174,0.5424 0.62747,0.9867 1.01119,0.9867 0.41202,0 0.59885,0.3767 0.45496,0.9281 -0.24932,0.9552 0.39171,2.8526 1.47453,4.3607 0.48962,0.6854 0.4369,1.035 -0.25912,1.7318 -1.12659,1.1269 -1.1125,1.8319 0.0377,1.8839 0.54461,0.075 0.65007,0.1506 0.26062,0.3013 -0.90067,0.3615 -0.82188,1.74 0.0994,1.74 1.17609,0 1.51943,1.026 0.79575,2.3781 -0.53482,0.9989 -0.53406,1.3891 0.002,2.0361 0.57099,0.6854 0.4482,0.7992 -0.88049,0.7992 -1.14135,0 -1.6993,0.339 -2.13823,1.3039 -0.63877,1.4034 -2.18011,1.7898 -2.18011,0.5423 z"
             style="fill:none;stroke:#47a3ff;stroke-width:2.44749427;stroke-linejoin:round;stroke-miterlimit:4;stroke-opacity:1;stroke-dasharray:none" />
        </g>
        <g
           transform="matrix(0.45772454,0,0,0.46643493,-65.168067,499.35578)"
           id="g2990">
          <g
             transform="translate(0,139.82208)"
             id="g2998">
            <text
               xml:space="preserve"
               style="font-size:16.94060135px;font-style:normal;font-weight:normal;line-height:125%;letter-spacing:0px;word-spacing:0px;fill:#47a3ff;fill-opacity:1;stroke:none;font-family:Sans"
               x="129.26459"
               y="998.13525"
               id="text3878"
               sodipodi:linespacing="125%"><tspan
                 sodipodi:role="line"
                 id="tspan3880"
                 x="129.26459"
                 y="998.13525"
                 style="font-size:120.42952728px;font-style:italic;font-variant:normal;font-weight:bold;font-stretch:normal;fill:#47a3ff;fill-opacity:1;font-family:FontAwesome;-inkscape-font-specification:FontAwesome Bold Italic">LIVV</tspan></text>
            <text
               xml:space="preserve"
               style="font-size:16.94060135px;font-style:normal;font-weight:normal;line-height:125%;letter-spacing:0px;word-spacing:0px;fill:#47a3ff;fill-opacity:1;stroke:none;font-family:Sans"
               x="427.85526"
               y="998.13525"
               id="text3878-9"
               sodipodi:linespacing="125%"><tspan
                 sodipodi:role="line"
                 id="tspan3880-2"
                 x="427.85526"
                 y="998.13525"
                 style="font-size:64px;font-style:italic;font-variant:normal;font-weight:bold;font-stretch:normal;fill:#47a3ff;fill-opacity:1;font-family:FontAwesome;-inkscape-font-specification:FontAwesome Bold Italic">kit</tspan></text>
          </g>
        </g>
      </g>
    </g>
  </g>
</svg>
