<?xml version="1.0" encoding="UTF-8" standalone="no"?>
<!-- Created with Inkscape (http://www.inkscape.org/) -->

<svg
   xmlns:osb="http://www.openswatchbook.org/uri/2009/osb"
   xmlns:dc="http://purl.org/dc/elements/1.1/"
   xmlns:cc="http://creativecommons.org/ns#"
   xmlns:rdf="http://www.w3.org/1999/02/22-rdf-syntax-ns#"
   xmlns:svg="http://www.w3.org/2000/svg"
   xmlns="http://www.w3.org/2000/svg"
   xmlns:sodipodi="http://sodipodi.sourceforge.net/DTD/sodipodi-0.dtd"
   xmlns:inkscape="http://www.inkscape.org/namespaces/inkscape"
   width="35"
   height="35"
   id="svg2"
   version="1.1"
   inkscape:version="0.91 r13725"
   sodipodi:docname="gicon.svg">
  <sodipodi:namedview
     id="base"
     pagecolor="#000000"
     bordercolor="#666666"
     borderopacity="1.0"
     inkscape:pageopacity="1"
     inkscape:pageshadow="2"
     inkscape:zoom="5.6002857"
     inkscape:cx="36.953632"
     inkscape:cy="-36.340207"
     inkscape:document-units="px"
     showgrid="false"
     inkscape:window-width="1920"
     inkscape:window-height="1051"
     inkscape:window-x="0"
     inkscape:window-y="29"
     inkscape:window-maximized="1"
     inkscape:current-layer="layer1" />
  <defs
     id="defs4">
    <linearGradient
       id="linearGradient3770"
       osb:paint="solid">
      <stop
         style="stop-color:#ffffff;stop-opacity:1;"
         offset="0"
         id="stop3772" />
    </linearGradient>
  </defs>
  <metadata
     id="metadata7">
    <rdf:RDF>
      <cc:Work
         rdf:about="">
        <dc:format>image/svg+xml</dc:format>
        <dc:type
           rdf:resource="http://purl.org/dc/dcmitype/StillImage" />
        <dc:title />
      </cc:Work>
    </rdf:RDF>
  </metadata>
  <g
     inkscape:label="Layer 1"
     inkscape:groupmode="layer"
     id="layer1"
     transform="translate(0,-1017.3622)">
    <path
       sodipodi:type="arc"
       style="fill:none;stroke:#ffffff;stroke-width:40.57368469;stroke-linejoin:round;stroke-miterlimit:4;stroke-opacity:1;stroke-dasharray:none"
       id="path2998"
       sodipodi:cx="-102.85714"
       sodipodi:cy="739.50507"
       sodipodi:rx="405.71429"
       sodipodi:ry="405.71429"
       d="m 302.85715,739.50507 a 405.71429,405.71429 0 1 1 -811.42858,0 405.71429,405.71429 0 1 1 811.42858,0 z"
       transform="matrix(0.03479198,0.00538608,-0.00538608,0.03479198,26.001617,1008.909)" />
    <path
       style="fill:#ffffff;fill-opacity:1;fill-rule:nonzero;stroke:#ffffff;stroke-width:6.07142878;stroke-linejoin:round;stroke-miterlimit:4;stroke-opacity:1;stroke-dasharray:none"
       d=""
       id="path3832"
       inkscape:connector-curvature="0" />
    <path
       style="fill:#ffffff;fill-opacity:1;fill-rule:nonzero;stroke:#ffffff;stroke-width:6.07142878;stroke-linejoin:round;stroke-miterlimit:4;stroke-opacity:1;stroke-dasharray:none"
       d=""
       id="path3834"
       inkscape:connector-curvature="0" />
    <path
       style="fill:#ffffff;fill-opacity:1;fill-rule:nonzero;stroke:#ffffff;stroke-width:6.07142878;stroke-linejoin:round;stroke-miterlimit:4;stroke-opacity:1;stroke-dasharray:none"
       d=""
       id="path3836"
       inkscape:connector-curvature="0" />
    <path
       style="fill:#ffffff;fill-opacity:1;fill-rule:nonzero;stroke:#ffffff;stroke-width:0.22116585;stroke-linejoin:round;stroke-miterlimit:4;stroke-opacity:1;stroke-dasharray:none"
       d="m 25.67589,1045.6988 c 0,-0.055 -0.04372,-0.1254 -0.09717,-0.1558 -0.05343,-0.031 -0.107947,-0.1332 -0.12113,-0.2284 -0.02102,-0.1518 -0.05803,-0.1731 -0.300822,-0.1731 -0.352537,0 -0.46101,-0.1002 -0.406025,-0.3751 0.03365,-0.1681 0.01883,-0.2132 -0.06985,-0.2132 -0.06182,0 -0.112473,0.031 -0.112473,0.069 0,0.038 -0.0454,0.069 -0.100875,0.069 -0.05547,0 -0.187852,0.109 -0.294158,0.2423 -0.191108,0.2394 -0.448638,0.3198 -0.541834,0.169 -0.02671,-0.043 -0.198137,-0.061 -0.419383,-0.043 -0.337304,0.027 -0.374143,0.017 -0.374143,-0.1072 0,-0.095 -0.03277,-0.1249 -0.105933,-0.097 -0.06912,0.026 -0.133094,-0.019 -0.184145,-0.1311 -0.07634,-0.1675 -0.263654,-0.2403 -0.263654,-0.1024 0,0.1292 -0.174254,0.07 -0.304727,-0.1038 -0.07146,-0.095 -0.172728,-0.1731 -0.22502,-0.1731 -0.223268,0 -0.854561,-0.5301 -0.854561,-0.7177 0,-0.066 -0.05657,-0.1129 -0.138437,-0.1129 -0.09987,0 -0.138429,-0.046 -0.138429,-0.1656 0,-0.1688 -0.113934,-0.2497 -0.351742,-0.2497 -0.104977,0 -0.132765,-0.05 -0.132765,-0.2365 0,-0.1301 -0.03898,-0.2522 -0.08652,-0.2714 -0.04759,-0.019 -0.01642,-0.037 0.0692,-0.04 0.178473,-0.01 0.186648,-0.045 0.05869,-0.2756 -0.05066,-0.091 -0.07708,-0.2238 -0.05869,-0.2941 0.02606,-0.1 -0.0051,-0.1279 -0.142006,-0.1279 -0.291246,0 -0.388508,0.072 -0.434843,0.3181 -0.02431,0.1296 -0.06066,0.2356 -0.08078,0.2356 -0.08547,0 -0.220641,-0.2561 -0.222677,-0.4218 -0.0022,-0.2137 -0.269027,-0.5472 -0.436996,-0.5472 -0.0654,0 -0.118926,-0.037 -0.118926,-0.083 0,-0.045 -0.07976,-0.166 -0.177239,-0.2678 -0.160597,-0.1676 -0.167093,-0.1951 -0.0692,-0.293 0.05942,-0.059 0.108014,-0.1762 0.108014,-0.2594 0,-0.1243 -0.03109,-0.1456 -0.173035,-0.1184 -0.196115,0.037 -0.234589,-0.087 -0.0692,-0.2246 0.140619,-0.1167 0.130743,-0.2077 -0.02256,-0.2077 -0.06949,0 -0.200713,0.079 -0.291588,0.1759 -0.161262,0.1717 -0.166481,0.1725 -0.217509,0.034 -0.02876,-0.078 -0.03438,-0.188 -0.01248,-0.2451 0.02781,-0.072 -0.0051,-0.1037 -0.108941,-0.1037 -0.08182,0 -0.19021,-0.039 -0.240859,-0.086 -0.0761,-0.071 -0.06817,-0.1068 0.04569,-0.2055 0.155524,-0.1349 0.115372,-0.3704 -0.05219,-0.3061 -0.05679,0.022 -0.103247,0.024 -0.103247,0.01 0,-0.08 0.428142,-0.4454 0.521506,-0.4454 0.199699,0 0.09695,-0.1302 -0.12351,-0.1565 l -0.224954,-0.027 0.224954,-0.056 c 0.253852,-0.063 0.284932,-0.1872 0.09697,-0.3889 -0.123532,-0.1326 -0.35653,-0.1247 -0.35653,0.012 0,0.034 -0.04671,0.062 -0.103823,0.062 -0.182692,0 -0.11278,-0.2637 0.103823,-0.3916 0.149196,-0.088 0.207648,-0.1754 0.207648,-0.3097 0,-0.1028 0.03292,-0.1979 0.07317,-0.2114 0.10251,-0.034 0.0022,-0.2639 -0.115189,-0.2639 -0.07073,0 -0.09642,-0.1015 -0.09642,-0.3807 0,-0.3345 -0.01679,-0.3807 -0.13843,-0.3807 -0.0769,0 -0.138429,-0.046 -0.138429,-0.1038 0,-0.1376 -0.181422,-0.1336 -0.234648,0.01 -0.0381,0.099 -0.05168,0.099 -0.150845,0 -0.07029,-0.07 -0.169269,-0.094 -0.278406,-0.066 -0.09316,0.023 -0.254429,0.01 -0.358376,-0.029 -0.103956,-0.039 -0.306669,-0.091 -0.450485,-0.1151 -0.143817,-0.024 -0.24321,-0.073 -0.220867,-0.1091 0.05949,-0.096 0.889174,-0.081 0.988392,0.018 0.06562,0.066 0.117481,0.049 0.238794,-0.077 0.107773,-0.1121 0.128619,-0.171 0.06847,-0.1934 -0.04759,-0.017 -0.08652,-0.092 -0.08652,-0.1649 0,-0.073 -0.0311,-0.1327 -0.0692,-0.1327 -0.0381,0 -0.0692,-0.051 -0.0692,-0.1135 0,-0.1592 -0.205268,-0.297 -0.446441,-0.2996 -0.158809,0 -0.185729,-0.02 -0.121131,-0.085 0.130072,-0.13 0.104131,-0.2862 -0.0381,-0.2291 -0.06664,0.027 -0.160064,0.064 -0.207647,0.084 -0.05328,0.022 -0.08652,-0.021 -0.08652,-0.1122 0,-0.1413 -0.0089,-0.1431 -0.20421,-0.042 -0.112312,0.058 -0.261829,0.1056 -0.332237,0.1056 -0.173772,0 -0.294144,0.1331 -0.294144,0.3253 0,0.095 -0.04161,0.1592 -0.103823,0.1592 -0.05708,0 -0.103824,-0.043 -0.103824,-0.096 0,-0.053 -0.04671,-0.1143 -0.103824,-0.1363 -0.142035,-0.055 -0.145765,-0.5979 -0.0044,-0.5979 0.08581,0 0.08636,-0.025 0.0044,-0.1844 -0.05343,-0.1029 -0.07836,-0.2713 -0.0565,-0.3807 0.02963,-0.1483 0.01292,-0.1962 -0.06854,-0.1962 -0.05927,0 -0.129298,-0.068 -0.155553,-0.1505 -0.08188,-0.2579 -0.260895,-0.3887 -0.601834,-0.4393 -0.243939,-0.036 -0.328778,-0.079 -0.328778,-0.1664 0,-0.1403 -0.246216,-0.4205 -0.369536,-0.4205 -0.04803,0 -0.124664,0.037 -0.170342,0.083 -0.05985,0.06 -0.08306,0.061 -0.08306,0.01 0,-0.043 0.0311,-0.098 0.0692,-0.1218 0.0381,-0.023 0.0692,-0.1188 0.0692,-0.2117 0,-0.1341 -0.03577,-0.169 -0.173042,-0.169 -0.128882,0 -0.173042,-0.036 -0.173042,-0.1433 0,-0.2133 -0.166889,-0.3412 -0.44496,-0.3412 -0.135955,0 -0.247195,-0.033 -0.247195,-0.072 0,-0.1087 -0.325179,-0.4121 -0.441813,-0.4121 -0.05613,0 -0.144524,-0.042 -0.196473,-0.094 -0.05533,-0.056 -0.33988,-0.1149 -0.687614,-0.1439 -0.506462,-0.042 -0.599293,-0.034 -0.635089,0.06 -0.03453,0.09 -0.170684,0.1093 -0.770861,0.1093 -0.439814,0 -0.728942,-0.028 -0.728942,-0.069 0,-0.038 -0.06226,-0.069 -0.13843,-0.069 -0.104612,0 -0.138692,0.047 -0.139495,0.1903 -5.84e-4,0.1102 -0.02277,0.1562 -0.05263,0.1094 -0.02839,-0.045 -0.144364,-0.1043 -0.257816,-0.1328 -0.2461,-0.062 -0.368084,-0.1701 -0.327785,-0.291 0.04723,-0.1416 -0.12313,-0.2912 -0.331749,-0.2912 -0.156889,0 -0.186144,-0.025 -0.157443,-0.1348 0.02642,-0.1009 0.106371,-0.1401 0.318267,-0.1557 0.25334,-0.019 0.288961,-0.044 0.339763,-0.2414 0.04336,-0.1684 0.101503,-0.2272 0.246282,-0.2492 0.135992,-0.02 0.108547,-0.031 -0.09712,-0.039 -0.244034,-0.01 -0.293129,-0.036 -0.330092,-0.1834 -0.06044,-0.2407 -0.317661,-0.2407 -0.317661,0 0,0.1384 -0.0346,0.173 -0.173042,0.173 -0.09563,0 -0.173035,-0.04 -0.173035,-0.09 0,-0.1271 -0.502412,-0.6024 -0.636688,-0.6024 -0.205713,0 -0.05248,-0.2671 0.227122,-0.3959 0.14716,-0.068 0.268363,-0.1616 0.269341,-0.2084 0.0015,-0.047 0.08744,-0.1043 0.192137,-0.1276 0.370785,-0.082 0.467718,-0.1182 0.512966,-0.1887 0.02518,-0.039 0.154619,-0.067 0.287647,-0.062 0.304187,0.012 0.458273,-0.1432 0.336698,-0.3378 -0.05036,-0.081 -0.05555,-0.1329 -0.01314,-0.1329 0.105488,0 0.08397,-0.1715 -0.05131,-0.4092 -0.09613,-0.1689 -0.167561,-0.2129 -0.346078,-0.2133 -0.123728,-2e-4 -0.224954,-0.031 -0.224954,-0.069 0,-0.038 -0.04671,-0.069 -0.103824,-0.069 -0.129181,0 -0.128582,-0.065 0.0022,-0.2381 0.05591,-0.074 0.10162,-0.2063 0.10162,-0.2942 0,-0.1243 0.03839,-0.1598 0.173035,-0.1598 0.101196,0 0.173049,-0.04 0.173049,-0.096 0,-0.053 0.05445,-0.1151 0.121123,-0.1386 0.06664,-0.023 0.160065,-0.06 0.207648,-0.083 0.0573,-0.027 0.08652,0.02 0.08652,0.1385 0,0.1434 0.03343,0.1788 0.168947,0.1788 0.21683,0 0.235378,-0.036 0.252728,-0.4887 0.01715,-0.4477 0.04423,-0.5127 0.169787,-0.4085 0.15394,0.1278 0.24772,0.01 0.198932,-0.2503 -0.04066,-0.2167 -0.03022,-0.2368 0.123262,-0.2368 0.09223,0 0.234552,-0.062 0.316281,-0.1384 0.175451,-0.1635 0.22359,-0.1726 0.22359,-0.042 0,0.053 0.07787,0.1159 0.173042,0.1398 0.11286,0.028 0.173035,0.092 0.173035,0.1826 0,0.1765 0.185976,0.2511 0.358069,0.1436 0.07263,-0.045 0.161955,-0.064 0.19848,-0.042 0.0365,0.023 0.06642,-0.01 0.06642,-0.067 0,-0.059 0.0311,-0.108 0.0692,-0.108 0.11059,0 0.07988,-0.3463 -0.0346,-0.3902 -0.05708,-0.022 -0.103824,-0.083 -0.103824,-0.1363 0,-0.13 0.408559,-0.1233 0.584265,0.01 0.185071,0.1399 0.800051,0.1383 0.800051,0 0,-0.063 -0.06416,-0.1039 -0.162305,-0.1039 -0.08928,0 -0.218691,-0.062 -0.287596,-0.1384 -0.0689,-0.076 -0.184969,-0.1384 -0.257924,-0.1384 -0.117912,0 -0.121116,-0.012 -0.02883,-0.1038 0.05708,-0.057 0.154991,-0.1039 0.217531,-0.1039 0.105407,0 0.359785,-0.1938 0.302413,-0.2305 -0.01409,-0.01 -0.108934,-0.058 -0.21086,-0.1095 -0.158334,-0.08 -0.173538,-0.1121 -0.104473,-0.2227 0.04861,-0.078 0.160422,-0.1294 0.280632,-0.1294 0.198057,0 0.199517,0 0.166554,-0.3461 -0.03066,-0.319 -0.02153,-0.3461 0.11667,-0.3461 0.08246,0 0.23945,-0.093 0.348873,-0.2076 0.109415,-0.1142 0.225669,-0.2076 0.258348,-0.2076 0.0327,0 0.137283,-0.078 0.23245,-0.1731 0.187225,-0.1872 0.383164,-0.2466 0.23848,-0.072 -0.04598,0.055 -0.06358,0.1333 -0.03898,0.173 0.07822,0.1266 0.276224,0.078 0.410441,-0.1007 0.146576,-0.1952 0.248991,-0.2236 0.248991,-0.069 0,0.058 0.06153,0.1038 0.138429,0.1038 0.07614,0 0.13843,-0.031 0.13843,-0.068 0,-0.037 0.07787,-0.088 0.173042,-0.1113 0.09517,-0.024 0.173042,-0.072 0.173042,-0.1052 0,-0.034 0.04598,-0.062 0.102087,-0.062 0.07461,0 0.09325,0.056 0.0692,0.2077 -0.0181,0.1142 -0.04912,0.3083 -0.0689,0.4312 -0.02007,0.1247 -0.140452,0.3312 -0.272261,0.4672 -0.219012,0.226 -0.235275,0.2733 -0.223509,0.6515 0.0093,0.2991 0.04416,0.4277 0.13051,0.4821 0.148758,0.094 0.170714,0.07 0.317165,-0.3461 0.06606,-0.1877 0.204641,-0.449 0.307939,-0.5809 l 0.187823,-0.2397 0.04511,0.2248 c 0.06599,0.3292 0.258195,0.2955 0.438434,-0.077 0.08036,-0.1661 0.126532,-0.3529 0.10259,-0.4153 -0.05971,-0.1556 0.05256,-0.1424 0.235093,0.028 0.112108,0.1044 0.151488,0.2214 0.151488,0.4499 0,0.1699 0.03109,0.3088 0.0692,0.3088 0.0381,0 0.0692,0.078 0.0692,0.173 0,0.1465 0.03219,0.1731 0.209815,0.1731 0.23491,0 0.337048,-0.153 0.206889,-0.3098 -0.04577,-0.056 -0.100415,-0.2892 -0.121357,-0.5202 -0.02095,-0.2309 -0.06482,-0.4363 -0.09749,-0.4566 -0.0327,-0.02 -0.05942,-0.1473 -0.05942,-0.2824 0,-0.2508 0.222932,-0.5731 0.397989,-0.5755 0.04759,-6e-4 0.08652,-0.032 0.08652,-0.07 0,-0.038 0.07161,-0.069 0.15913,-0.069 0.117408,0 0.180933,0.061 0.24226,0.2298 0.04569,0.1265 0.08312,0.2747 0.08312,0.3294 0,0.055 0.06226,0.1385 0.138437,0.1861 0.176291,0.1101 0.176291,0.2618 0,0.4128 -0.15959,0.1366 -0.187144,0.4338 -0.04022,0.4338 0.05401,0 0.192166,-0.054 0.306997,-0.1198 0.237837,-0.1365 0.356982,-0.079 0.211538,0.1021 -0.230399,0.2869 -0.275779,0.4267 -0.1854,0.5715 0.09454,0.1513 0.399135,0.1909 0.399398,0.052 1.9e-4,-0.096 0.356537,-0.5364 0.434529,-0.5364 0.02737,0 0.04978,0.047 0.04978,0.1059 0,0.058 0.04672,0.124 0.103824,0.1459 0.05708,0.022 0.103846,0.075 0.103868,0.119 4.4e-5,0.136 0.612126,0.7159 0.847941,0.8032 0.123678,0.046 0.271589,0.1119 0.32869,0.147 0.05708,0.035 0.166116,0.091 0.242254,0.1254 0.192224,0.086 0.488543,0.3532 0.391273,0.3532 -0.154217,0 -0.07772,0.2482 0.11054,0.3587 0.1641,0.096 0.202844,0.098 0.281012,0.013 0.04985,-0.054 0.123436,-0.078 0.163472,-0.053 0.04007,0.025 0.101846,0 0.137335,-0.05 0.05197,-0.077 0.08576,-0.065 0.173743,0.06 0.06007,0.086 0.175495,0.1582 0.256508,0.1612 0.125269,0.01 0.118831,0.016 -0.04306,0.075 -0.1234,0.045 -0.190334,0.1196 -0.190334,0.2119 0,0.078 -0.05409,0.1819 -0.12021,0.2302 -0.113583,0.083 -0.112992,0.096 0.01073,0.2326 0.07197,0.08 0.16405,0.1447 0.204524,0.1447 0.04044,0 0.142977,0.081 0.227772,0.1794 0.163144,0.1898 0.300128,0.1732 0.300128,-0.037 0,-0.069 0.04671,-0.1646 0.103824,-0.2121 0.08779,-0.073 0.103817,-0.058 0.103817,0.095 0,0.1327 0.03569,0.1816 0.132663,0.1816 0.07299,0 0.14305,-0.027 0.155736,-0.06 0.0127,-0.033 0.0893,-0.081 0.170232,-0.1057 0.11148,-0.034 0.156042,-0.012 0.183815,0.094 0.02015,0.077 0.109678,0.1694 0.198926,0.2052 0.160575,0.064 0.160283,0.065 -0.0281,0.069 -0.142736,0 -0.190349,0.039 -0.190349,0.1429 0,0.076 -0.0311,0.1384 -0.0692,0.1384 -0.0381,0 -0.0692,0.047 -0.0692,0.1038 0,0.065 0.06533,0.1038 0.173035,0.1038 0.146123,0 0.173035,0.032 0.173035,0.2077 0,0.2422 -0.01183,0.2374 0.258027,0.1028 0.285756,-0.1425 0.417113,-0.081 0.379142,0.1778 -0.02292,0.1562 0.0094,0.2375 0.13351,0.3361 0.09005,0.072 0.238589,0.1957 0.33007,0.2758 0.09147,0.08 0.242801,0.1457 0.336274,0.1457 0.146721,0 0.164013,-0.023 0.126525,-0.173 -0.03438,-0.1371 -0.0173,-0.173 0.08247,-0.173 0.06927,0 0.163283,0.037 0.208969,0.083 0.0646,0.064 0.08306,0.064 0.08306,0 0,-0.046 0.03109,-0.083 0.0692,-0.083 0.108824,0 0.0808,0.1884 -0.0346,0.2326 -0.06854,0.026 -0.103824,0.1348 -0.103824,0.3189 0,0.2299 -0.02365,0.2791 -0.13405,0.2791 -0.100035,0 -0.139546,-0.056 -0.155736,-0.2208 -0.02029,-0.2069 -0.02898,-0.2135 -0.13767,-0.1041 -0.06379,0.064 -0.164757,0.098 -0.22437,0.075 -0.06511,-0.025 -0.125707,0 -0.151772,0.072 -0.02723,0.071 -0.08973,0.098 -0.167794,0.073 -0.209444,-0.066 -0.242319,0.1145 -0.05073,0.2793 0.155247,0.1335 0.17232,0.191 0.140524,0.4731 -0.03168,0.2816 -0.02014,0.321 0.09393,0.319 0.07161,0 0.189224,-0.047 0.261457,-0.1016 0.21067,-0.1595 0.272844,-0.039 0.07963,0.154 -0.252903,0.2529 -0.234706,0.4343 0.04358,0.4343 0.162459,0 0.270224,-0.059 0.412485,-0.2249 0.140452,-0.1641 0.193334,-0.1933 0.195386,-0.1079 0.0015,0.064 -0.02832,0.1363 -0.06642,0.1598 -0.116627,0.072 -0.07846,0.1351 0.140371,0.232 0.248041,0.1098 0.412463,0.063 0.463331,-0.1313 0.06744,-0.258 0.711395,-0.4745 0.711395,-0.2391 0,0.1253 0.21575,0.1372 0.334501,0.018 0.06759,-0.068 0.09328,-0.055 0.123626,0.061 0.02679,0.1024 0.110941,0.1583 0.279764,0.1856 0.286925,0.047 0.646425,0.1972 0.646425,0.2708 0,0.028 0.07007,0.053 0.155736,0.053 0.152582,0 0.152225,0 -0.0173,0.089 -0.09517,0.048 -0.17724,0.1334 -0.182364,0.1893 -0.0051,0.056 -0.01292,0.1561 -0.0173,0.2227 -0.01095,0.1655 -0.09893,0.1521 -0.341442,-0.052 -0.113108,-0.095 -0.271231,-0.1731 -0.351384,-0.1731 -0.08017,0 -0.14575,-0.043 -0.14575,-0.095 0,-0.1361 -0.183166,-0.2771 -0.240173,-0.1849 -0.02467,0.04 -0.146203,0.072 -0.270071,0.072 -0.123874,0 -0.379003,0.073 -0.566951,0.1628 -0.238581,0.1137 -0.420076,0.1532 -0.601286,0.1308 -0.205662,-0.025 -0.25956,-0.01 -0.25956,0.079 0,0.061 0.03934,0.1115 0.08741,0.1115 0.04803,0 0.11816,0.07 0.155736,0.1557 0.07088,0.1616 0.3798,0.26 0.3798,0.121 0,-0.1842 0.519542,-0.4403 0.740599,-0.365 0.110568,0.038 -0.0051,0.346 -0.190101,0.5064 -0.20275,0.1758 -0.309917,0.5276 -0.200786,0.6591 0.0662,0.08 0.06796,0.1248 0.0073,0.1854 -0.157896,0.1579 -0.08713,0.2601 0.180086,0.2601 0.185254,0 0.285121,-0.04 0.346668,-0.1384 0.04752,-0.076 0.154714,-0.1385 0.238137,-0.1385 0.117984,0 0.133232,0.018 0.06861,0.083 -0.138196,0.1382 -0.09495,0.1938 0.150721,0.1938 0.259443,0 0.354873,-0.082 0.425704,-0.3637 0.02621,-0.1046 0.07545,-0.19 0.109386,-0.19 0.03394,0 0.06168,-0.047 0.06168,-0.1038 0,-0.057 0.03109,-0.1038 0.0692,-0.1038 0.0381,0 0.0692,-0.062 0.0692,-0.1385 0,-0.1188 0.0465,-0.1386 0.328778,-0.1395 0.361574,0 0.44088,-0.036 0.557543,-0.2411 0.07058,-0.1246 0.07968,-0.1142 0.09028,0.1038 0.02591,0.5325 -0.01781,0.797 -0.150473,0.9108 -0.07506,0.064 -0.133962,0.2029 -0.133962,0.315 0,0.11 -0.03606,0.236 -0.08012,0.2801 -0.06066,0.061 -0.0592,0.1054 0.0058,0.184 0.06949,0.084 0.06489,0.1341 -0.02372,0.2606 -0.06044,0.086 -0.109832,0.2465 -0.109832,0.3563 0,0.1292 -0.05963,0.2465 -0.168947,0.3325 -0.09292,0.073 -0.190692,0.2022 -0.217268,0.2868 -0.02657,0.085 -0.114072,0.2181 -0.194436,0.2965 -0.08036,0.078 -0.216706,0.2272 -0.302983,0.3306 -0.117699,0.1411 -0.18683,0.173 -0.276858,0.1277 -0.138547,-0.069 -0.70833,-0.025 -0.70833,0.056 0,0.03 0.109014,0.1058 0.242254,0.169 0.133239,0.063 0.242253,0.1612 0.242253,0.2177 0,0.056 0.0435,0.1195 0.09662,0.1398 0.06891,0.026 0.08631,0.1139 0.06073,0.3048 -0.03022,0.2254 -0.0073,0.2942 0.145641,0.4359 0.139524,0.1292 0.181538,0.2344 0.181538,0.4544 0,0.1575 -0.03109,0.2862 -0.0692,0.2862 -0.0381,0 -0.0692,0.063 -0.0692,0.1394 0,0.2402 -0.148203,0.414 -0.288895,0.3387 -0.08337,-0.044 -0.168495,-0.038 -0.263246,0.021 -0.168743,0.1054 -0.180086,0.2325 -0.02832,0.3174 0.162525,0.091 0.06766,0.3078 -0.183202,0.4188 -0.198042,0.088 -0.221436,0.082 -0.366398,-0.087 -0.08517,-0.099 -0.209341,-0.1801 -0.275939,-0.1801 -0.192181,0 -0.219035,0.1981 -0.0511,0.3768 0.09772,0.104 0.125692,0.1788 0.07797,0.2083 -0.04095,0.025 -0.07442,0.1298 -0.07442,0.2322 -8e-6,0.1299 -0.0733,0.2448 -0.242261,0.3796 -0.133232,0.1063 -0.242246,0.2317 -0.242246,0.2787 0,0.1005 0.244611,0.3239 0.354566,0.3239 0.0492,0 0.06044,0.084 0.03168,0.2369 -0.02577,0.1373 -0.01445,0.2554 0.02693,0.2809 0.147509,0.091 0.07117,0.2994 -0.136305,0.3717 -0.246071,0.086 -0.298625,0.3564 -0.0692,0.3564 0.07614,0 0.138422,0.028 0.138422,0.061 0,0.034 0.0581,0.076 0.129057,0.095 0.182013,0.047 0.271589,0.5327 0.11897,0.6443 -0.138364,0.1012 -0.140991,0.3699 -0.0051,0.5634 0.09315,0.133 0.09243,0.1603 -0.0066,0.2596 -0.09393,0.094 -0.09664,0.1282 -0.01759,0.2235 0.05139,0.062 0.08325,0.1723 0.07088,0.2454 -0.01475,0.087 0.02635,0.1457 0.118838,0.1699 0.07774,0.02 0.160064,0.096 0.182925,0.1679 0.02285,0.072 0.08327,0.131 0.13424,0.131 0.05474,0 0.07951,0.05 0.06044,0.1232 -0.03314,0.1268 0.05204,0.3787 0.19575,0.5789 0.06504,0.091 0.05796,0.1374 -0.03445,0.2299 -0.149561,0.1496 -0.147692,0.2432 0.0051,0.2501 0.07234,0.01 0.08629,0.02 0.0346,0.04 -0.119569,0.048 -0.109109,0.231 0.01321,0.231 0.15613,0 0.201706,0.1362 0.105634,0.3157 -0.07102,0.1326 -0.07095,0.1844 2.92e-4,0.2703 0.07582,0.091 0.05949,0.1061 -0.116889,0.1061 -0.151517,0 -0.225589,0.045 -0.283859,0.1731 -0.08482,0.1863 -0.289421,0.2376 -0.289421,0.072 z"
       id="path3878"
       inkscape:connector-curvature="0" />
    <path
       style="fill:#ffffff;fill-opacity:1;fill-rule:nonzero;stroke:#ffffff;stroke-width:1.51785719;stroke-linejoin:round;stroke-miterlimit:4;stroke-opacity:1;stroke-dasharray:none"
       d=""
       id="path3884"
       inkscape:connector-curvature="0" />
    <path
       style="fill:#ffffff;fill-opacity:1;fill-rule:nonzero;stroke:#ffffff;stroke-width:1.51785719;stroke-linejoin:round;stroke-miterlimit:4;stroke-opacity:1;stroke-dasharray:none"
       d=""
       id="path3888"
       inkscape:connector-curvature="0" />
    <path
       style="fill:#ffffff;fill-opacity:1;fill-rule:nonzero;stroke:#ffffff;stroke-width:1.51785719;stroke-linejoin:round;stroke-miterlimit:4;stroke-opacity:1;stroke-dasharray:none"
       d=""
       id="path3890"
       inkscape:connector-curvature="0" />
    <path
       style="fill:#ffffff;fill-opacity:1;fill-rule:nonzero;stroke:#ffffff;stroke-width:3.03571439;stroke-linejoin:round;stroke-miterlimit:4;stroke-opacity:1;stroke-dasharray:none"
       d=""
       id="path3912"
       inkscape:connector-curvature="0" />
    <path
       style="fill:#ffffff;fill-opacity:1;fill-rule:nonzero;stroke:#ffffff;stroke-width:3.03571439;stroke-linejoin:round;stroke-miterlimit:4;stroke-opacity:1;stroke-dasharray:none"
       d=""
       id="path3914"
       inkscape:connector-curvature="0" />
    <path
       style="fill:#ffffff;fill-opacity:1;fill-rule:nonzero;stroke:#ffffff;stroke-width:1.51785719;stroke-linejoin:round;stroke-miterlimit:4;stroke-opacity:1;stroke-dasharray:none"
       d=""
       id="path3928"
       inkscape:connector-curvature="0" />
    <path
       style="fill:#ffffff;fill-opacity:1;fill-rule:nonzero;stroke:#ffffff;stroke-width:1.51785719;stroke-linejoin:round;stroke-miterlimit:4;stroke-opacity:1;stroke-dasharray:none"
       d=""
       id="path3930"
       inkscape:connector-curvature="0" />
  </g>
</svg>
